<svg width="21" height="20" viewBox="0 0 21 20" fill="none" xmlns="http://www.w3.org/2000/svg">
<path opacity="0.8" d="M20 4.84518C20 2.63605 18.2091 0.845184 16 0.845184H4C1.79086 0.845184 0 2.63605 0 4.84518V14.8452C0 17.0543 1.79086 18.8452 4 18.8452H16C18.2091 18.8452 20 17.0543 20 14.8452V4.84518Z" fill="#FCD436"/>
<path d="M6 9.84518C6 8.18833 4.65685 6.84518 3 6.84518H0V12.8452H3C4.65685 12.8452 6 11.502 6 9.84518Z" fill="currentColor"/>
<path fill-rule="evenodd" clip-rule="evenodd" d="M17 12.0952C17.4142 12.0952 17.75 12.431 17.75 12.8452V15.0952H20C20.4142 15.0952 20.75 15.431 20.75 15.8452C20.75 16.2594 20.4142 16.5952 20 16.5952H17.75V18.8452C17.75 19.2594 17.4142 19.5952 17 19.5952C16.5858 19.5952 16.25 19.2594 16.25 18.8452V16.5952H14C13.5858 16.5952 13.25 16.2594 13.25 15.8452C13.25 15.431 13.5858 15.0952 14 15.0952H16.25V12.8452C16.25 12.431 16.5858 12.0952 17 12.0952Z" fill="currentColor"/>
</svg>
