<svg width="23" height="23" viewBox="0 0 23 23" fill="none" xmlns="http://www.w3.org/2000/svg">
<path fill-rule="evenodd" clip-rule="evenodd" d="M1.5 0.75C1.91421 0.75 2.25 1.08579 2.25 1.5V17.5C2.25 19.2949 3.70507 20.75 5.5 20.75H21.5C21.9142 20.75 22.25 21.0858 22.25 21.5C22.25 21.9142 21.9142 22.25 21.5 22.25H5.5C2.87665 22.25 0.75 20.1234 0.75 17.5V1.5C0.75 1.08579 1.08579 0.75 1.5 0.75Z" fill="#FCD436"/>
<path opacity="0.4" fill-rule="evenodd" clip-rule="evenodd" d="M6.5 9.75C6.91421 9.75 7.25 10.0858 7.25 10.5V16.5C7.25 16.9142 6.91421 17.25 6.5 17.25C6.08579 17.25 5.75 16.9142 5.75 16.5V10.5C5.75 10.0858 6.08579 9.75 6.5 9.75Z" fill="#FCD436"/>
<path opacity="0.4" fill-rule="evenodd" clip-rule="evenodd" d="M11.5 5.75C11.9142 5.75 12.25 6.08579 12.25 6.5V16.5C12.25 16.9142 11.9142 17.25 11.5 17.25C11.0858 17.25 10.75 16.9142 10.75 16.5V6.5C10.75 6.08579 11.0858 5.75 11.5 5.75Z" fill="#FCD436"/>
<path opacity="0.4" fill-rule="evenodd" clip-rule="evenodd" d="M16.5 7.75C16.9142 7.75 17.25 8.08579 17.25 8.5V16.5C17.25 16.9142 16.9142 17.25 16.5 17.25C16.0858 17.25 15.75 16.9142 15.75 16.5V8.5C15.75 8.08579 16.0858 7.75 16.5 7.75Z" fill="#FCD436"/>
</svg>
