<svg width="25" height="25" viewBox="0 0 25 25" fill="none" xmlns="http://www.w3.org/2000/svg">
<g clip-path="url(#clip0_1442_44426)">
<path d="M12.7884 8.4082H11.0739V11.7885H13.7713V13.2038H11.0739V16.5838H12.8724C13.3345 16.5838 16.6663 16.636 16.6612 12.6512C16.656 8.66632 13.4297 8.4082 12.7884 8.4082Z" fill="currentColor"/>
<path d="M12.5 0.5C5.87252 0.5 0.5 5.87252 0.5 12.5C0.5 19.1275 5.87252 24.5 12.5 24.5C19.1275 24.5 24.5 19.1275 24.5 12.5C24.5 5.87252 19.1275 0.5 12.5 0.5ZM12.9715 18.9812H8.62568V13.2037H7.09376V11.7884H8.62556V6.01052H12.3554C13.2378 6.01052 19.0821 5.82728 19.0821 12.6043C19.0821 19.4934 12.9716 18.9812 12.9716 18.9812H12.9715Z" fill="currentColor"/>
</g>
<defs>
<clipPath id="clip0_1442_44426">
<rect width="24" height="24" fill="white" transform="translate(0.5 0.5)"/>
</clipPath>
</defs>
</svg>
