<svg width="20" height="18" viewBox="0 0 20 18" fill="none" xmlns="http://www.w3.org/2000/svg">
<path d="M19.1303 6.8531C20.2899 8.07317 20.2899 9.92683 19.1303 11.1469C17.1745 13.2047 13.8155 16 10 16C6.18448 16 2.82549 13.2047 0.869706 11.1469C-0.289902 9.92683 -0.289902 8.07317 0.869705 6.8531C2.82549 4.79533 6.18448 2 10 2C13.8155 2 17.1745 4.79533 19.1303 6.8531Z" fill="#71717A"/>
<path d="M12.1213 11.1213C12.3999 10.8427 12.6209 10.512 12.7716 10.1481C12.9224 9.78407 13 9.39397 13 9C13 8.60603 12.9224 8.21593 12.7716 7.85195C12.6209 7.48797 12.3999 7.15726 12.1213 6.87868C11.8427 6.6001 11.512 6.37913 11.1481 6.22836C10.7841 6.0776 10.394 6 10 6C9.60603 6 9.21593 6.0776 8.85195 6.22836C8.48797 6.37913 8.15726 6.6001 7.87868 6.87868L10 9L12.1213 11.1213Z" fill="#A1A1AA"/>
<path fill-rule="evenodd" clip-rule="evenodd" d="M10 16C6.18448 16 2.82549 13.2047 0.869706 11.1469C-0.289902 9.92683 -0.289902 8.07317 0.869705 6.8531C1.69954 5.98 2.78198 4.97411 4.04473 4.10531L1.46976 1.53033C1.17686 1.23744 1.17686 0.762563 1.46976 0.46967C1.76265 0.176777 2.23752 0.176777 2.53042 0.46967L18.5304 16.4697C18.8233 16.7626 18.8233 17.2374 18.5304 17.5303C18.2375 17.8232 17.7626 17.8232 17.4698 17.5303L14.643 14.7035C13.2337 15.4709 11.6601 16 10 16ZM10 12.0001C8.34315 12.0001 7 10.6569 7 9.00009C7 8.44372 7.15146 7.92272 7.41539 7.47607L11.524 11.5847C11.0774 11.8486 10.5564 12.0001 10 12.0001Z" fill="#A1A1AA"/>
</svg>
