<svg width="19" height="20" viewBox="0 0 19 20" fill="none" xmlns="http://www.w3.org/2000/svg">
<path opacity="0.8" d="M4.125 3.375H12.125C14.3341 3.375 16.125 5.16586 16.125 7.375V15.375C16.125 17.5841 14.3341 19.375 12.125 19.375H4.125C1.91586 19.375 0.125 17.5841 0.125 15.375V7.375C0.125 5.16586 1.91586 3.375 4.125 3.375Z" fill="#FCD436"/>
<path fill-rule="evenodd" clip-rule="evenodd" d="M18.6553 0.84467C18.9482 1.13756 18.9482 1.61244 18.6553 1.90533L8.93567 11.625H13.125C13.5392 11.625 13.875 11.9608 13.875 12.375C13.875 12.7892 13.5392 13.125 13.125 13.125H7.12501C6.71079 13.125 6.37501 12.7892 6.37501 12.375L6.375 6.375C6.375 5.96079 6.71079 5.625 7.125 5.625C7.53921 5.625 7.875 5.96079 7.875 6.375L7.87501 10.5643L17.5947 0.84467C17.8876 0.551777 18.3624 0.551777 18.6553 0.84467Z" fill="currentColor"/>
</svg>
