<svg width="20" height="19" viewBox="0 0 20 19" fill="none" xmlns="http://www.w3.org/2000/svg">
<path opacity="0.8" d="M4.5 3H12.5C14.7091 3 16.5 4.79086 16.5 7V15C16.5 17.2091 14.7091 19 12.5 19H4.5C2.29086 19 0.5 17.2091 0.5 15V7C0.5 4.79086 2.29086 3 4.5 3Z" fill="#FCD436"/>
<path fill-rule="evenodd" clip-rule="evenodd" d="M12.5 0.250001L18.5 0.25C18.9142 0.25 19.25 0.585786 19.25 1L19.25 6.99999C19.25 7.41421 18.9142 7.74999 18.5 7.74999C18.0858 7.74999 17.75 7.41421 17.75 6.99999L17.75 2.81066L8.03033 12.5303C7.73744 12.8232 7.26256 12.8232 6.96967 12.5303C6.67678 12.2374 6.67678 11.7626 6.96967 11.4697L16.6893 1.75L12.5 1.75C12.0858 1.75 11.75 1.41421 11.75 1C11.75 0.585788 12.0858 0.250001 12.5 0.250001Z" fill="currentColor"/>
</svg>
